<?xml version="1.0" encoding="UTF-8" standalone="no"?>
<!-- Created with Inkscape (http://www.inkscape.org/) -->

<svg
   width="114.277mm"
   height="22.15531mm"
   viewBox="0 0 114.277 22.15531"
   version="1.1"
   id="svg1"
   xmlns="http://www.w3.org/2000/svg"
   xmlns:svg="http://www.w3.org/2000/svg">
  <defs
     id="defs1" />
  <g
     id="layer1"
     transform="translate(-49.42901,-82.148161)">
    <path
       d="M 69.666649,101.64672 V 89.015358 h 2.845346 v 2.146345 h 0.148024 q 0.39473,-1.085508 1.307543,-1.69405 0.912814,-0.616766 2.179239,-0.616766 1.282873,0 2.162792,0.624989 0.888143,0.616766 1.249979,1.685827 h 0.131577 q 0.4194,-1.052614 1.414449,-1.677603 1.003273,-0.633213 2.376604,-0.633213 1.743392,0 2.845347,1.101955 1.101954,1.101954 1.101954,3.215405 v 8.478473 h -2.985146 v -8.017954 q 0,-1.175967 -0.624989,-1.718721 -0.62499,-0.550977 -1.529579,-0.550977 -1.077285,0 -1.685827,0.67433 -0.600319,0.666107 -0.600319,1.735168 v 7.878154 h -2.919358 v -8.141307 q 0,-0.978602 -0.592095,-1.562474 -0.583871,-0.583871 -1.529579,-0.583871 -0.641436,0 -1.167743,0.328941 -0.526307,0.320719 -0.838802,0.912814 -0.312494,0.583871 -0.312494,1.365108 v 7.680789 z m 24.423897,0.25493 q -1.200637,0 -2.162792,-0.42762 -0.953931,-0.43585 -1.513132,-1.28288 -0.550977,-0.847021 -0.550977,-2.088776 0,-1.069061 0.39473,-1.768062 0.39473,-0.699002 1.077284,-1.118402 0.682554,-0.419401 1.537803,-0.633213 0.863472,-0.222036 1.784509,-0.320718 1.110178,-0.11513 1.800956,-0.205589 0.690778,-0.09868 1.003272,-0.296048 0.320718,-0.205588 0.320718,-0.633212 v -0.04934 q 0,-0.92926 -0.550977,-1.43912 -0.550977,-0.50986 -1.587144,-0.50986 -1.093731,0 -1.735168,0.476966 -0.633213,0.476965 -0.855248,1.126625 l -2.779558,-0.39473 q 0.328942,-1.151296 1.085508,-1.924309 0.756566,-0.781237 1.850297,-1.167743 1.093731,-0.39473 2.417722,-0.39473 0.912813,0 1.817403,0.213812 0.90459,0.213812 1.652932,0.707225 0.748343,0.485189 1.200636,1.32399 0.46052,0.838802 0.46052,2.097004 v 8.4538 h -2.861793 v -1.735165 h -0.09868 q -0.271377,0.526305 -0.76479,0.986825 -0.485189,0.45229 -1.225308,0.73189 -0.731895,0.27138 -1.718721,0.27138 z m 0.773013,-2.187462 q 0.896367,0 1.55425,-0.353612 0.657884,-0.361836 1.011496,-0.953931 0.361836,-0.592096 0.361836,-1.291097 v -1.488461 q -0.1398,0.115129 -0.476966,0.213812 -0.328941,0.09868 -0.740118,0.172694 -0.411178,0.07401 -0.814131,0.131577 -0.402954,0.05757 -0.699002,0.09868 -0.666107,0.09046 -1.192413,0.296047 -0.526307,0.205589 -0.830578,0.575648 -0.304271,0.361836 -0.304271,0.937484 0,0.822355 0.600318,1.241755 0.600319,0.419401 1.529579,0.419401 z m 11.874791,-5.468657 v 7.401189 h -2.97692 V 89.015358 h 2.84534 v 2.146345 h 0.14802 q 0.43585,-1.060838 1.38978,-1.685827 0.96216,-0.624989 2.37661,-0.624989 1.30754,0 2.27792,0.559201 0.9786,0.559201 1.51313,1.620038 0.54276,1.060837 0.53453,2.573969 v 8.042625 h -2.97692 v -7.582106 q 0,-1.266426 -0.65788,-1.981875 -0.64966,-0.715448 -1.80096,-0.715448 -0.78124,0 -1.38978,0.345389 -0.60032,0.337165 -0.94571,0.978602 -0.33716,0.641436 -0.33716,1.554249 z m 11.14289,7.401189 V 89.015358 h 2.97692 v 12.631362 z m 1.49669,-14.424095 q -0.70723,0 -1.21709,-0.468742 -0.50986,-0.476965 -0.50986,-1.143073 0,-0.67433 0.50986,-1.143072 0.50986,-0.476966 1.21709,-0.476966 0.71544,0 1.21708,0.476966 0.50986,0.468742 0.50986,1.143072 0,0.666108 -0.50986,1.143073 -0.50164,0.468742 -1.21708,0.468742 z m 10.93729,1.792733 v 2.302592 h -7.46698 v -2.302592 z m -5.60023,12.631362 V 87.822944 q 0,-1.27465 0.52631,-2.121675 0.53453,-0.847025 1.43089,-1.266425 0.89637,-0.419401 1.9901,-0.419401 0.77301,0 1.37333,0.123353 0.60032,0.123353 0.88814,0.222036 l -0.59209,2.302592 q -0.18914,-0.05757 -0.47697,-0.11513 -0.28782,-0.06579 -0.64143,-0.06579 -0.83058,0 -1.17597,0.402954 -0.33716,0.39473 -0.33716,1.134849 v 13.626413 z m 12.97182,0.24671 q -1.8503,0 -3.20719,-0.81413 -1.35688,-0.81413 -2.10522,-2.277925 -0.74012,-1.463791 -0.74012,-3.420994 0,-1.957204 0.74012,-3.429218 0.74834,-1.472015 2.10522,-2.286145 1.35689,-0.814131 3.20719,-0.814131 1.85029,0 3.20718,0.814131 1.35688,0.81413 2.097,2.286145 0.74835,1.472014 0.74835,3.429218 0,1.957203 -0.74835,3.420994 -0.74012,1.463795 -2.097,2.277925 -1.35689,0.81413 -3.20718,0.81413 z m 0.0164,-2.38483 q 1.00328,0 1.67761,-0.550978 0.67433,-0.559201 1.00327,-1.496685 0.33716,-0.937484 0.33716,-2.08878 0,-1.15952 -0.33716,-2.097004 -0.32894,-0.945707 -1.00327,-1.504908 -0.67433,-0.559201 -1.67761,-0.559201 -1.02794,0 -1.71049,0.559201 -0.67433,0.559201 -1.0115,1.504908 -0.32894,0.937484 -0.32894,2.097004 0,1.151296 0.32894,2.08878 0.33717,0.937484 1.0115,1.496685 0.68255,0.550978 1.71049,0.550978 z m 11.5294,-14.703697 v 16.841817 h -2.97692 V 84.804903 Z m 7.74656,17.063857 q -1.48847,0 -2.66443,-0.76479 -1.17597,-0.76479 -1.85852,-2.22036 -0.68256,-1.455567 -0.68256,-3.536124 0,-2.105227 0.69078,-3.552571 0.699,-1.455567 1.88319,-2.195686 1.18419,-0.748342 2.63976,-0.748342 1.11018,0 1.82563,0.378283 0.71544,0.370059 1.13485,0.896366 0.4194,0.518083 0.64966,0.978602 h 0.12335 v -6.299235 h 2.98514 v 16.841817 h -2.92758 v -1.990097 h -0.18091 q -0.23026,0.460517 -0.66611,0.978607 -0.43585,0.50985 -1.1513,0.87169 -0.71545,0.36184 -1.80095,0.36184 z m 0.83057,-2.442396 q 0.94571,0 1.61182,-0.50986 0.66611,-0.518083 1.01149,-1.43912 0.34539,-0.921037 0.34539,-2.146345 0,-1.225308 -0.34539,-2.129898 -0.33716,-0.904589 -1.00327,-1.406226 -0.65788,-0.501636 -1.62004,-0.501636 -0.99504,0 -1.66115,0.518084 -0.66611,0.518083 -1.00327,1.430896 -0.33717,0.912813 -0.33717,2.08878 0,1.184191 0.33717,2.113451 0.34538,0.921037 1.01149,1.455567 0.67433,0.526307 1.65293,0.526307 z"
       id="text22"
       style="-inkscape-font-specification:'Inter, @wght=600';stroke-width:0.578939"
       aria-label="manifold" />
    <g
       id="g25"
       transform="rotate(-90,73.983405,65.506152)">
      <path
         d="m 49.551687,42.666385 c 0,-0.324941 -0.157268,-0.613948 -0.362577,-0.824554 -0.205309,-0.210592 -0.462951,-0.366986 -0.75775,-0.494887 -0.589614,-0.255811 -1.340386,-0.395189 -2.167449,-0.395189 -0.827078,0 -1.578151,0.139378 -2.167765,0.395189 -0.294802,0.127901 -0.552032,0.284295 -0.75734,0.494887 -0.20531,0.210606 -0.362987,0.499613 -0.362987,0.824554 v 11.656909 c 0,0.324946 0.157677,0.613952 0.362987,0.824557 0.205308,0.210594 0.462528,0.366986 0.75734,0.494887 0.589614,0.255823 1.340687,0.395188 2.167765,0.395188 0.827076,0 1.577835,-0.139365 2.167449,-0.395188 0.294799,-0.127901 0.552441,-0.284293 0.75775,-0.494887 0.205309,-0.210605 0.362577,-0.499611 0.362577,-0.824557 z m -1.017566,11.656909 c -0.0083,-0.0013 0.0025,0.03613 -0.07357,0.114042 -0.07598,0.07793 -0.226181,0.181745 -0.434205,0.272013 -0.416227,0.180587 -1.0546,0.310923 -1.762382,0.310923 -0.707781,0 -1.346578,-0.130336 -1.762807,-0.310923 -0.156079,-0.06774 -0.279214,-0.143024 -0.363097,-0.209319 -0.02799,-0.02206 -0.05162,-0.04315 -0.07054,-0.06254 v -1.09e-4 c -0.07597,-0.07793 -0.07393,-0.10604 -0.07393,-0.114039 0,-0.0084 -0.0025,-0.03624 0.07393,-0.114167 0.03793,-0.03891 0.09441,-0.08423 0.167351,-0.131064 0.06108,-0.03927 0.136262,-0.07926 0.219415,-0.117804 0.01612,-0.0073 0.03006,-0.01527 0.04692,-0.02266 0.416241,-0.180573 1.055074,-0.311358 1.762808,-0.311358 0.707782,0 1.346152,0.13076 1.762381,0.311358 0.104107,0.04521 0.193613,0.09358 0.266635,0.14042 0.07297,0.04678 0.129489,0.09211 0.16746,0.131062 h 1.07e-4 c 0.07598,0.07794 0.08157,0.11564 0.07357,0.114167 z"
         id="path23"
         style="stroke-width:0.203547" />
      <path
         d="m 45.188162,43.755359 c 0.08412,-0.313868 0.0073,-0.633731 -0.13682,-0.890295 -0.1438,-0.256563 -0.352188,-0.474307 -0.603842,-0.674161 -0.503311,-0.399698 -1.192427,-0.728629 -1.991313,-0.942687 -0.798886,-0.214059 -1.560458,-0.273835 -2.196187,-0.179348 -0.317862,0.04727 -0.606787,0.131728 -0.859618,0.282027 -0.252816,0.150284 -0.479929,0.388631 -0.564028,0.702496 l -3.61559,13.49356 c -0.08412,0.313865 -0.0062,0.633825 0.137218,0.890401 0.143801,0.256563 0.351789,0.474185 0.603444,0.67404 0.50331,0.399698 1.192717,0.728713 1.991616,0.942773 0.798897,0.21407 1.560139,0.27376 2.195882,0.179263 0.317864,-0.04727 0.607198,-0.131621 0.860018,-0.281906 0.252831,-0.150298 0.47953,-0.38874 0.563629,-0.70262 z m -4.598479,13.230182 c -0.0025,0.0074 -0.0074,0.03551 -0.100588,0.09113 -0.09357,0.05562 -0.265511,0.117077 -0.489823,0.150358 -0.44878,0.06664 -1.099127,0.02738 -1.782791,-0.1558 -0.683676,-0.183191 -1.266963,-0.474415 -1.622265,-0.756589 -0.133245,-0.105807 -0.232688,-0.210412 -0.296559,-0.296158 -0.02134,-0.0286 -0.03866,-0.05503 -0.05199,-0.07865 l 2.3e-5,-1.09e-4 c -0.0532,-0.0949 -0.044,-0.121524 -0.04193,-0.129268 0.0025,-0.0073 0.0073,-0.03551 0.100959,-0.09114 0.04677,-0.02775 0.112952,-0.05683 0.195577,-0.08324 0.0692,-0.02206 0.152114,-0.0412 0.242433,-0.05697 0.01745,-0.0036 0.03297,-0.0073 0.05114,-0.0096 0.448782,-0.06664 1.099711,-0.02762 1.783324,0.155508 0.683664,0.183191 1.266444,0.47472 1.621746,0.75688 0.08884,0.07053 0.162805,0.140492 0.221212,0.204656 0.05841,0.06411 0.101206,0.122492 0.127838,0.16993 l 9.7e-5,2.3e-5 c 0.0532,0.0949 0.04361,0.12155 0.04156,0.129294 z"
         id="path24"
         style="stroke-width:0.203547" />
      <path
         d="m 47.339343,43.755361 c -0.08411,-0.313869 -0.0073,-0.633732 0.136807,-0.890295 0.143814,-0.256564 0.352189,-0.474308 0.603856,-0.674162 0.503309,-0.399698 1.192414,-0.728629 1.991311,-0.942687 0.798888,-0.214058 1.560457,-0.273835 2.196188,-0.179348 0.31785,0.04727 0.606786,0.131728 0.859604,0.282027 0.25283,0.150284 0.479944,0.388631 0.564044,0.702496 l 3.615577,13.49356 c 0.08411,0.313865 0.0062,0.633825 -0.137209,0.890401 -0.143812,0.256563 -0.351787,0.474185 -0.603443,0.67404 -0.503321,0.399698 -1.192729,0.728713 -1.991616,0.942773 -0.798897,0.21407 -1.560152,0.27376 -2.195882,0.179263 -0.317864,-0.04727 -0.607198,-0.131621 -0.860017,-0.281906 -0.25283,-0.150298 -0.47953,-0.38874 -0.563629,-0.70262 z m 4.598478,13.230181 c 0.0025,0.0074 0.0073,0.03551 0.100589,0.09113 0.09358,0.05562 0.265508,0.117077 0.489807,0.150358 0.448795,0.06664 1.099141,0.02738 1.782805,-0.1558 0.683664,-0.183191 1.266964,-0.474415 1.622267,-0.756589 0.133244,-0.105806 0.232685,-0.210412 0.296546,-0.296158 0.02134,-0.0286 0.03866,-0.05503 0.05199,-0.07865 l -2.4e-5,-1.09e-4 c 0.0532,-0.0949 0.04401,-0.121524 0.04193,-0.129268 -0.0025,-0.0074 -0.0074,-0.03551 -0.100949,-0.09114 -0.04678,-0.02775 -0.112953,-0.05683 -0.195563,-0.08326 -0.0692,-0.02206 -0.152116,-0.04121 -0.242433,-0.05697 -0.01746,-0.0036 -0.03297,-0.0073 -0.05114,-0.0096 -0.44878,-0.06664 -1.099697,-0.02762 -1.783312,0.155507 -0.683663,0.18319 -1.266442,0.474719 -1.621745,0.756878 -0.08884,0.07054 -0.162804,0.140495 -0.221221,0.204656 -0.05841,0.06411 -0.101206,0.122494 -0.127827,0.16993 l -9.7e-5,2.4e-5 c -0.0532,0.0949 -0.04362,0.121549 -0.04156,0.129295 z"
         id="path25"
         style="stroke-width:0.203547" />
    </g>
  </g>
</svg>
